<mxfile host="www.draw.io" modified="2019-12-24T01:16:02.520Z" agent="Mozilla/5.0 (X11; Linux x86_64) AppleWebKit/537.36 (KHTML, like Gecko) Chrome/79.0.3945.88 Safari/537.36" etag="RH1btXNPJZrmFPcxdyG-" version="12.4.3" type="github" pages="1">
  <diagram id="O2djZ4lCdGnycN7Uimt3" name="第 1 页">
    <mxGraphModel dx="809" dy="1299" grid="1" gridSize="10" guides="1" tooltips="1" connect="1" arrows="1" fold="1" page="1" pageScale="1" pageWidth="1600" pageHeight="900" math="0" shadow="0">
      <root>
        <mxCell id="0"/>
        <mxCell id="1" parent="0"/>
        <mxCell id="TGcgY73z27qao994KosQ-40" value="" style="verticalLabelPosition=bottom;verticalAlign=top;html=1;shape=mxgraph.basic.6_point_star;fillColor=#1ba1e2;strokeColor=#006EAF;fontColor=#ffffff;gradientColor=#ffffff;" parent="1" vertex="1">
          <mxGeometry x="562.5" y="-165" width="80" height="70" as="geometry"/>
        </mxCell>
        <mxCell id="TGcgY73z27qao994KosQ-51" value="" style="verticalLabelPosition=bottom;verticalAlign=top;html=1;shape=mxgraph.basic.6_point_star;fillColor=#00CCCC;strokeColor=#2D7600;fontColor=#ffffff;gradientColor=#ffffff;" parent="1" vertex="1">
          <mxGeometry x="542.5" y="-125" width="80" height="60" as="geometry"/>
        </mxCell>
        <mxCell id="TGcgY73z27qao994KosQ-21" value="" style="group" parent="1" vertex="1" connectable="0">
          <mxGeometry x="190" y="399" width="500" height="270" as="geometry"/>
        </mxCell>
        <mxCell id="TGcgY73z27qao994KosQ-2" value="g(A)" style="ellipse;shape=cloud;whiteSpace=wrap;html=1;" parent="TGcgY73z27qao994KosQ-21" vertex="1">
          <mxGeometry x="70" y="20" width="70" height="50" as="geometry"/>
        </mxCell>
        <mxCell id="TGcgY73z27qao994KosQ-3" value="g(B)" style="ellipse;shape=cloud;whiteSpace=wrap;html=1;" parent="TGcgY73z27qao994KosQ-21" vertex="1">
          <mxGeometry x="210" y="100" width="60" height="50" as="geometry"/>
        </mxCell>
        <mxCell id="TGcgY73z27qao994KosQ-4" value="g(C)" style="ellipse;shape=cloud;whiteSpace=wrap;html=1;" parent="TGcgY73z27qao994KosQ-21" vertex="1">
          <mxGeometry x="340" y="20" width="70" height="50" as="geometry"/>
        </mxCell>
        <mxCell id="TGcgY73z27qao994KosQ-10" style="edgeStyle=orthogonalEdgeStyle;curved=1;rounded=0;orthogonalLoop=1;jettySize=auto;html=1;exitX=0.5;exitY=0;exitDx=0;exitDy=0;exitPerimeter=0;entryX=0.4;entryY=0.1;entryDx=0;entryDy=0;entryPerimeter=0;" parent="TGcgY73z27qao994KosQ-21" source="TGcgY73z27qao994KosQ-6" target="TGcgY73z27qao994KosQ-2" edge="1">
          <mxGeometry relative="1" as="geometry">
            <Array as="points">
              <mxPoint x="15"/>
              <mxPoint x="98"/>
            </Array>
          </mxGeometry>
        </mxCell>
        <mxCell id="TGcgY73z27qao994KosQ-12" value="自我迭代" style="text;html=1;align=center;verticalAlign=middle;resizable=0;points=[];;labelBackgroundColor=#ffffff;" parent="TGcgY73z27qao994KosQ-10" vertex="1" connectable="0">
          <mxGeometry x="-0.4161" y="-24" relative="1" as="geometry">
            <mxPoint as="offset"/>
          </mxGeometry>
        </mxCell>
        <mxCell id="TGcgY73z27qao994KosQ-6" value="规范v1" style="verticalLabelPosition=bottom;verticalAlign=top;html=1;shape=mxgraph.basic.star;fillColor=#ffe6cc;strokeColor=#d79b00;" parent="TGcgY73z27qao994KosQ-21" vertex="1">
          <mxGeometry y="53" width="30" height="28" as="geometry"/>
        </mxCell>
        <mxCell id="TGcgY73z27qao994KosQ-9" style="edgeStyle=orthogonalEdgeStyle;rounded=0;orthogonalLoop=1;jettySize=auto;html=1;entryX=0.815;entryY=1;entryDx=0;entryDy=0;entryPerimeter=0;curved=1;exitX=0.55;exitY=0.95;exitDx=0;exitDy=0;exitPerimeter=0;" parent="TGcgY73z27qao994KosQ-21" source="TGcgY73z27qao994KosQ-2" target="TGcgY73z27qao994KosQ-6" edge="1">
          <mxGeometry relative="1" as="geometry">
            <Array as="points">
              <mxPoint x="109" y="101"/>
              <mxPoint x="24" y="101"/>
            </Array>
          </mxGeometry>
        </mxCell>
        <mxCell id="TGcgY73z27qao994KosQ-11" value="自我总结" style="text;html=1;align=center;verticalAlign=middle;resizable=0;points=[];;labelBackgroundColor=#ffffff;" parent="TGcgY73z27qao994KosQ-9" vertex="1" connectable="0">
          <mxGeometry x="-0.5362" y="-19" relative="1" as="geometry">
            <mxPoint as="offset"/>
          </mxGeometry>
        </mxCell>
        <mxCell id="TGcgY73z27qao994KosQ-14" style="edgeStyle=orthogonalEdgeStyle;curved=1;rounded=0;orthogonalLoop=1;jettySize=auto;html=1;exitX=0.185;exitY=1;exitDx=0;exitDy=0;exitPerimeter=0;" parent="TGcgY73z27qao994KosQ-21" source="TGcgY73z27qao994KosQ-7" edge="1">
          <mxGeometry relative="1" as="geometry">
            <mxPoint x="214" y="130" as="targetPoint"/>
            <Array as="points">
              <mxPoint x="180" y="198"/>
              <mxPoint x="180" y="130"/>
            </Array>
          </mxGeometry>
        </mxCell>
        <mxCell id="TGcgY73z27qao994KosQ-16" value="自我迭代" style="text;html=1;align=center;verticalAlign=middle;resizable=0;points=[];;labelBackgroundColor=#ffffff;" parent="TGcgY73z27qao994KosQ-14" vertex="1" connectable="0">
          <mxGeometry x="0.268" y="-1" relative="1" as="geometry">
            <mxPoint as="offset"/>
          </mxGeometry>
        </mxCell>
        <mxCell id="TGcgY73z27qao994KosQ-7" value="规范v1" style="verticalLabelPosition=bottom;verticalAlign=top;html=1;shape=mxgraph.basic.star;fillColor=#f8cecc;strokeColor=#b85450;" parent="TGcgY73z27qao994KosQ-21" vertex="1">
          <mxGeometry x="225" y="170" width="30" height="28" as="geometry"/>
        </mxCell>
        <mxCell id="TGcgY73z27qao994KosQ-13" style="edgeStyle=orthogonalEdgeStyle;curved=1;rounded=0;orthogonalLoop=1;jettySize=auto;html=1;exitX=0.96;exitY=0.7;exitDx=0;exitDy=0;exitPerimeter=0;entryX=0.833;entryY=0.786;entryDx=0;entryDy=0;entryPerimeter=0;" parent="TGcgY73z27qao994KosQ-21" source="TGcgY73z27qao994KosQ-3" target="TGcgY73z27qao994KosQ-7" edge="1">
          <mxGeometry relative="1" as="geometry">
            <Array as="points">
              <mxPoint x="310" y="135"/>
              <mxPoint x="310" y="192"/>
            </Array>
          </mxGeometry>
        </mxCell>
        <mxCell id="TGcgY73z27qao994KosQ-15" value="自我总结" style="text;html=1;align=center;verticalAlign=middle;resizable=0;points=[];;labelBackgroundColor=#ffffff;" parent="TGcgY73z27qao994KosQ-13" vertex="1" connectable="0">
          <mxGeometry x="-0.4843" y="-18" relative="1" as="geometry">
            <mxPoint as="offset"/>
          </mxGeometry>
        </mxCell>
        <mxCell id="TGcgY73z27qao994KosQ-18" style="edgeStyle=orthogonalEdgeStyle;curved=1;rounded=0;orthogonalLoop=1;jettySize=auto;html=1;exitX=0.185;exitY=1;exitDx=0;exitDy=0;exitPerimeter=0;entryX=0.55;entryY=0.95;entryDx=0;entryDy=0;entryPerimeter=0;" parent="TGcgY73z27qao994KosQ-21" source="TGcgY73z27qao994KosQ-8" target="TGcgY73z27qao994KosQ-4" edge="1">
          <mxGeometry relative="1" as="geometry">
            <Array as="points">
              <mxPoint x="476" y="110"/>
              <mxPoint x="379" y="110"/>
            </Array>
          </mxGeometry>
        </mxCell>
        <mxCell id="TGcgY73z27qao994KosQ-20" value="自我迭代" style="text;html=1;align=center;verticalAlign=middle;resizable=0;points=[];;labelBackgroundColor=#ffffff;" parent="TGcgY73z27qao994KosQ-18" vertex="1" connectable="0">
          <mxGeometry x="0.0788" y="-3" relative="1" as="geometry">
            <mxPoint as="offset"/>
          </mxGeometry>
        </mxCell>
        <mxCell id="TGcgY73z27qao994KosQ-8" value="规范v2" style="verticalLabelPosition=bottom;verticalAlign=top;html=1;shape=mxgraph.basic.star;fillColor=#dae8fc;strokeColor=#6c8ebf;" parent="TGcgY73z27qao994KosQ-21" vertex="1">
          <mxGeometry x="470" y="56" width="30" height="28" as="geometry"/>
        </mxCell>
        <mxCell id="TGcgY73z27qao994KosQ-17" style="edgeStyle=orthogonalEdgeStyle;curved=1;rounded=0;orthogonalLoop=1;jettySize=auto;html=1;exitX=0.625;exitY=0.2;exitDx=0;exitDy=0;exitPerimeter=0;entryX=0.5;entryY=0;entryDx=0;entryDy=0;entryPerimeter=0;" parent="TGcgY73z27qao994KosQ-21" source="TGcgY73z27qao994KosQ-4" target="TGcgY73z27qao994KosQ-8" edge="1">
          <mxGeometry relative="1" as="geometry">
            <Array as="points">
              <mxPoint x="384"/>
              <mxPoint x="485"/>
            </Array>
          </mxGeometry>
        </mxCell>
        <mxCell id="TGcgY73z27qao994KosQ-19" value="自我总结" style="text;html=1;align=center;verticalAlign=middle;resizable=0;points=[];;labelBackgroundColor=#ffffff;" parent="TGcgY73z27qao994KosQ-17" vertex="1" connectable="0">
          <mxGeometry x="-0.016" y="-5" relative="1" as="geometry">
            <mxPoint as="offset"/>
          </mxGeometry>
        </mxCell>
        <mxCell id="TGcgY73z27qao994KosQ-60" value="&lt;h1&gt;&lt;font style=&quot;font-size: 18px&quot;&gt;规范来自于实践&lt;/font&gt;&lt;/h1&gt;&lt;p&gt;1. 组内代码review;&lt;/p&gt;&lt;p&gt;2. 组成成员自我发起;&lt;/p&gt;" style="text;html=1;strokeColor=none;fillColor=none;spacing=5;spacingTop=-20;whiteSpace=wrap;overflow=hidden;rounded=0;shadow=0;comic=1;" parent="TGcgY73z27qao994KosQ-21" vertex="1">
          <mxGeometry x="-85" y="150" width="190" height="120" as="geometry"/>
        </mxCell>
        <mxCell id="xGgnkoBgqCHPPis7gM4J-2" value="" style="edgeStyle=orthogonalEdgeStyle;rounded=0;orthogonalLoop=1;jettySize=auto;html=1;" edge="1" parent="TGcgY73z27qao994KosQ-21" source="xGgnkoBgqCHPPis7gM4J-1" target="TGcgY73z27qao994KosQ-4">
          <mxGeometry relative="1" as="geometry"/>
        </mxCell>
        <mxCell id="xGgnkoBgqCHPPis7gM4J-3" value="" style="edgeStyle=orthogonalEdgeStyle;rounded=0;orthogonalLoop=1;jettySize=auto;html=1;" edge="1" parent="TGcgY73z27qao994KosQ-21" source="xGgnkoBgqCHPPis7gM4J-1" target="TGcgY73z27qao994KosQ-3">
          <mxGeometry relative="1" as="geometry"/>
        </mxCell>
        <mxCell id="xGgnkoBgqCHPPis7gM4J-4" value="" style="edgeStyle=orthogonalEdgeStyle;rounded=0;orthogonalLoop=1;jettySize=auto;html=1;" edge="1" parent="TGcgY73z27qao994KosQ-21" source="xGgnkoBgqCHPPis7gM4J-1" target="TGcgY73z27qao994KosQ-2">
          <mxGeometry relative="1" as="geometry"/>
        </mxCell>
        <mxCell id="xGgnkoBgqCHPPis7gM4J-1" value="开发小组" style="text;html=1;strokeColor=none;fillColor=none;align=center;verticalAlign=middle;whiteSpace=wrap;rounded=0;" vertex="1" parent="TGcgY73z27qao994KosQ-21">
          <mxGeometry x="202" y="30.5" width="76" height="29" as="geometry"/>
        </mxCell>
        <mxCell id="TGcgY73z27qao994KosQ-32" style="edgeStyle=orthogonalEdgeStyle;curved=1;rounded=0;orthogonalLoop=1;jettySize=auto;html=1;exitX=0.75;exitY=0.25;exitDx=0;exitDy=0;exitPerimeter=0;entryX=0.5;entryY=0;entryDx=0;entryDy=0;comic=1;" parent="1" source="TGcgY73z27qao994KosQ-24" target="TGcgY73z27qao994KosQ-26" edge="1">
          <mxGeometry relative="1" as="geometry">
            <Array as="points">
              <mxPoint x="269" y="60"/>
              <mxPoint x="593" y="60"/>
            </Array>
          </mxGeometry>
        </mxCell>
        <mxCell id="TGcgY73z27qao994KosQ-24" value="&lt;br&gt;A" style="shape=actor;whiteSpace=wrap;html=1;" parent="1" vertex="1">
          <mxGeometry x="250" y="170" width="25" height="40" as="geometry"/>
        </mxCell>
        <mxCell id="TGcgY73z27qao994KosQ-31" style="edgeStyle=orthogonalEdgeStyle;curved=1;rounded=0;orthogonalLoop=1;jettySize=auto;html=1;exitX=0.1;exitY=0.5;exitDx=0;exitDy=0;exitPerimeter=0;entryX=0.5;entryY=1;entryDx=0;entryDy=0;" parent="1" source="TGcgY73z27qao994KosQ-25" target="TGcgY73z27qao994KosQ-24" edge="1">
          <mxGeometry relative="1" as="geometry"/>
        </mxCell>
        <mxCell id="TGcgY73z27qao994KosQ-25" value="&lt;br&gt;B" style="shape=actor;whiteSpace=wrap;html=1;" parent="1" vertex="1">
          <mxGeometry x="415" y="320" width="25" height="40" as="geometry"/>
        </mxCell>
        <mxCell id="TGcgY73z27qao994KosQ-33" style="edgeStyle=orthogonalEdgeStyle;curved=1;rounded=0;orthogonalLoop=1;jettySize=auto;html=1;exitX=0.5;exitY=1;exitDx=0;exitDy=0;entryX=1;entryY=0.75;entryDx=0;entryDy=0;" parent="1" source="TGcgY73z27qao994KosQ-26" target="TGcgY73z27qao994KosQ-25" edge="1">
          <mxGeometry relative="1" as="geometry"/>
        </mxCell>
        <mxCell id="TGcgY73z27qao994KosQ-26" value="&lt;br&gt;C" style="shape=actor;whiteSpace=wrap;html=1;fontStyle=1" parent="1" vertex="1">
          <mxGeometry x="580" y="170" width="25" height="40" as="geometry"/>
        </mxCell>
        <mxCell id="TGcgY73z27qao994KosQ-27" value="规范v1" style="verticalLabelPosition=bottom;verticalAlign=top;html=1;shape=mxgraph.basic.star;fillColor=#ffe6cc;strokeColor=#d79b00;" parent="1" vertex="1">
          <mxGeometry x="372.5" y="182" width="30" height="28" as="geometry"/>
        </mxCell>
        <mxCell id="TGcgY73z27qao994KosQ-28" value="规范v1" style="verticalLabelPosition=bottom;verticalAlign=top;html=1;shape=mxgraph.basic.star;fillColor=#f8cecc;strokeColor=#b85450;" parent="1" vertex="1">
          <mxGeometry x="415" y="210" width="30" height="28" as="geometry"/>
        </mxCell>
        <mxCell id="TGcgY73z27qao994KosQ-29" value="规范v2" style="verticalLabelPosition=bottom;verticalAlign=top;html=1;shape=mxgraph.basic.star;fillColor=#dae8fc;strokeColor=#6c8ebf;" parent="1" vertex="1">
          <mxGeometry x="452.5" y="182" width="30" height="28" as="geometry"/>
        </mxCell>
        <mxCell id="TGcgY73z27qao994KosQ-36" value="合成阶段" style="text;html=1;strokeColor=none;fillColor=none;align=center;verticalAlign=middle;whiteSpace=wrap;rounded=0;" parent="1" vertex="1">
          <mxGeometry x="110" y="100" width="85" height="20" as="geometry"/>
        </mxCell>
        <mxCell id="TGcgY73z27qao994KosQ-39" value="&lt;br&gt;专家" style="shape=actor;whiteSpace=wrap;html=1;fillColor=#f5f5f5;strokeColor=#666666;fontColor=#333333;" parent="1" vertex="1">
          <mxGeometry x="432.5" y="-260" width="40" height="60" as="geometry"/>
        </mxCell>
        <mxCell id="TGcgY73z27qao994KosQ-37" value="萃取阶段" style="text;html=1;strokeColor=none;fillColor=none;align=center;verticalAlign=middle;whiteSpace=wrap;rounded=0;" parent="1" vertex="1">
          <mxGeometry x="115" y="390" width="75" as="geometry"/>
        </mxCell>
        <mxCell id="TGcgY73z27qao994KosQ-47" value="演进阶段" style="text;html=1;strokeColor=none;fillColor=none;align=center;verticalAlign=middle;whiteSpace=wrap;rounded=0;" parent="1" vertex="1">
          <mxGeometry x="110" y="-210" width="85" height="20" as="geometry"/>
        </mxCell>
        <mxCell id="TGcgY73z27qao994KosQ-49" value="" style="group" parent="1" vertex="1" connectable="0">
          <mxGeometry x="387.5" y="166" width="80" height="60" as="geometry"/>
        </mxCell>
        <mxCell id="TGcgY73z27qao994KosQ-34" value="" style="verticalLabelPosition=bottom;verticalAlign=top;html=1;shape=mxgraph.basic.6_point_star;fillColor=#00CCCC;strokeColor=#2D7600;fontColor=#ffffff;gradientColor=#ffffff;" parent="TGcgY73z27qao994KosQ-49" vertex="1">
          <mxGeometry width="80" height="60" as="geometry"/>
        </mxCell>
        <mxCell id="TGcgY73z27qao994KosQ-35" value="规范X" style="text;html=1;strokeColor=none;fillColor=none;align=center;verticalAlign=middle;whiteSpace=wrap;rounded=0;" parent="TGcgY73z27qao994KosQ-49" vertex="1">
          <mxGeometry x="20.5" y="14" width="40" height="20" as="geometry"/>
        </mxCell>
        <mxCell id="TGcgY73z27qao994KosQ-50" value="规范X" style="text;html=1;strokeColor=none;fillColor=none;align=center;verticalAlign=middle;whiteSpace=wrap;rounded=0;" parent="1" vertex="1">
          <mxGeometry x="560" y="-105" width="40" height="20" as="geometry"/>
        </mxCell>
        <mxCell id="TGcgY73z27qao994KosQ-52" value="" style="verticalLabelPosition=bottom;verticalAlign=top;html=1;shape=mxgraph.basic.4_point_star_2;dx=0.8;fillColor=#e3c800;strokeColor=#B09500;fontColor=#ffffff;" parent="1" vertex="1">
          <mxGeometry x="370" y="-155" width="75" height="80" as="geometry"/>
        </mxCell>
        <mxCell id="TGcgY73z27qao994KosQ-53" value="专家规范" style="text;html=1;strokeColor=none;fillColor=none;align=center;verticalAlign=middle;whiteSpace=wrap;rounded=0;" parent="1" vertex="1">
          <mxGeometry x="567.5" y="-145" width="70" height="20" as="geometry"/>
        </mxCell>
        <mxCell id="TGcgY73z27qao994KosQ-54" value="" style="shape=arrow;endArrow=classic;html=1;entryX=1;entryY=0.5;entryDx=0;entryDy=0;entryPerimeter=0;exitX=0.24;exitY=0;exitDx=0;exitDy=0;exitPerimeter=0;fillColor=#f5f5f5;strokeColor=#666666;shadow=1;" parent="1" source="TGcgY73z27qao994KosQ-51" target="TGcgY73z27qao994KosQ-52" edge="1">
          <mxGeometry width="50" height="50" relative="1" as="geometry">
            <mxPoint x="530" y="5" as="sourcePoint"/>
            <mxPoint x="580" y="-45" as="targetPoint"/>
          </mxGeometry>
        </mxCell>
        <mxCell id="TGcgY73z27qao994KosQ-55" value="金科规范" style="text;html=1;strokeColor=none;fillColor=none;align=center;verticalAlign=middle;whiteSpace=wrap;rounded=0;" parent="1" vertex="1">
          <mxGeometry x="380" y="-125" width="50" height="20" as="geometry"/>
        </mxCell>
        <mxCell id="TGcgY73z27qao994KosQ-56" value="" style="shape=singleArrow;direction=south;whiteSpace=wrap;html=1;fillColor=none;gradientColor=#ffffff;comic=1;" parent="1" vertex="1">
          <mxGeometry x="215" y="-125" width="35" height="505" as="geometry"/>
        </mxCell>
        <mxCell id="TGcgY73z27qao994KosQ-57" value="" style="shape=singleArrow;direction=north;whiteSpace=wrap;html=1;fillColor=none;gradientColor=#ffffff;shadow=0;comic=1;" parent="1" vertex="1">
          <mxGeometry x="710" y="-130" width="30" height="510" as="geometry"/>
        </mxCell>
        <mxCell id="TGcgY73z27qao994KosQ-58" value="自下而上推进" style="text;html=1;strokeColor=none;fillColor=none;align=center;verticalAlign=middle;whiteSpace=wrap;rounded=0;" parent="1" vertex="1">
          <mxGeometry x="730" y="105" width="80" height="25" as="geometry"/>
        </mxCell>
        <mxCell id="TGcgY73z27qao994KosQ-59" value="自上而下完善" style="text;html=1;strokeColor=none;fillColor=none;align=center;verticalAlign=middle;whiteSpace=wrap;rounded=0;" parent="1" vertex="1">
          <mxGeometry x="232.5" y="20" width="80" height="25" as="geometry"/>
        </mxCell>
        <mxCell id="TGcgY73z27qao994KosQ-62" value="&lt;h1&gt;&lt;font style=&quot;font-size: 20px&quot;&gt;各组代表交流规范,求同存异&lt;/font&gt;&lt;/h1&gt;&lt;div&gt;相同的部分提炼出成为公共的规范&lt;/div&gt;" style="text;html=1;strokeColor=none;fillColor=none;spacing=5;spacingTop=-20;whiteSpace=wrap;overflow=hidden;rounded=0;shadow=0;comic=1;" parent="1" vertex="1">
          <mxGeometry x="358" y="33" width="190" height="120" as="geometry"/>
        </mxCell>
        <mxCell id="TGcgY73z27qao994KosQ-63" value="&lt;h1&gt;规范自我完善&lt;/h1&gt;&lt;p&gt;1. 结合实践经验完善;&lt;/p&gt;&lt;p&gt;2. 综合实际进行优化;&lt;/p&gt;&lt;p&gt;3. 结果反向同步到底层;&lt;/p&gt;" style="text;html=1;strokeColor=none;fillColor=none;spacing=5;spacingTop=-20;whiteSpace=wrap;overflow=hidden;rounded=0;shadow=0;comic=1;" parent="1" vertex="1">
          <mxGeometry x="219" y="-320" width="190" height="120" as="geometry"/>
        </mxCell>
      </root>
    </mxGraphModel>
  </diagram>
</mxfile>
